<svg width="100" height="37" viewBox="0 0 100 37" fill="none" xmlns="http://www.w3.org/2000/svg">
<path d="M0.792236 22.3597V0.614279H8.1824V22.3597H0.792236Z" fill="#00FEFF"/>
<path d="M23.1189 6.78777V22.3597H15.7903V6.78777H10.4324V0.614279H28.4767V6.78777H23.1189Z" fill="#00FEFF"/>
<path d="M26.8375 16.2476V10.9649H35.3362V16.2476H26.8375Z" fill="#00FEFF"/>
<path d="M45.0733 22.974C43.349 22.974 41.6657 22.6771 40.0234 22.0833C38.4017 21.4895 37.0263 20.6909 35.8972 19.6876L40.3621 14.8348C40.8958 15.4286 41.5938 15.9303 42.456 16.3398C43.3182 16.7493 44.1804 16.9541 45.0425 16.9541C46.1305 16.9541 46.6745 16.6162 46.6745 15.9405C46.6745 15.5515 46.4385 15.2341 45.9663 14.9884C45.4942 14.7427 44.4472 14.3536 42.8255 13.8212C41.0806 13.2479 39.7052 12.4801 38.6993 11.5177C37.6934 10.5553 37.1905 9.20392 37.1905 7.46347C37.1905 6.17349 37.4574 5.03708 37.9911 4.05423C38.5454 3.05091 39.2741 2.26259 40.1774 1.68926C41.0806 1.11594 42.0454 0.696181 43.0718 0.429994C44.1188 0.143331 45.2068 0 46.3358 0C47.7933 0 49.2611 0.286663 50.7391 0.859988C52.2377 1.43331 53.5412 2.22164 54.6498 3.22496L50.0925 7.86275C49.6203 7.28943 49.025 6.83896 48.3065 6.51134C47.6086 6.16325 46.9517 5.9892 46.3358 5.9892C45.1452 5.9892 44.5499 6.31682 44.5499 6.97205C44.5499 7.27919 44.6936 7.51466 44.981 7.67847C45.2684 7.8218 45.8431 8.0368 46.7053 8.32346C47.3007 8.52822 47.7728 8.69203 48.1218 8.81488C48.4708 8.91726 48.9326 9.09131 49.5074 9.33702C50.1028 9.58273 50.5749 9.8182 50.9239 10.0434C51.2934 10.2687 51.6937 10.5656 52.1248 10.9341C52.5764 11.3027 52.9254 11.6815 53.1717 12.0706C53.4181 12.4596 53.6234 12.9305 53.7876 13.4834C53.9723 14.0158 54.0647 14.5891 54.0647 15.2034C54.0647 17.6605 53.1717 19.575 51.3858 20.9469C49.5998 22.2983 47.4957 22.974 45.0733 22.974Z" fill="#00FEFF"/>
<path d="M66.295 15.3569H64.232V22.3597H56.9342V0.614279H66.295C67.4857 0.614279 68.5839 0.737134 69.5898 0.982844C70.5957 1.22856 71.5297 1.6176 72.3919 2.14997C73.2746 2.68235 73.9623 3.43995 74.455 4.4228C74.9682 5.40564 75.2248 6.57277 75.2248 7.92418C75.2248 9.21416 74.9682 10.3506 74.455 11.3334C73.9623 12.3163 73.2849 13.0943 72.4227 13.6677C71.5811 14.241 70.6368 14.671 69.5898 14.9577C68.5634 15.2238 67.4652 15.3569 66.295 15.3569ZM65.7716 6.29635H64.232V9.79773H65.7716C66.3874 9.79773 66.9109 9.64416 67.342 9.33702C67.7731 9.02988 67.9886 8.57941 67.9886 7.98561C67.9886 6.85943 67.2496 6.29635 65.7716 6.29635Z" fill="#00FEFF"/>
<path d="M91.0088 22.3597L85.1891 13.6984H85.1275V22.3597H77.9836V0.614279H85.0967V8.6306H85.1583L90.978 0.614279H99.5999L91.4091 10.5656L100 22.3597H91.0088Z" fill="#00FEFF"/>
<path d="M3.41795 30.2429L2.97916 30.5962C2.72256 30.2327 2.34792 30.051 1.85524 30.051C1.55245 30.051 1.28302 30.1406 1.04694 30.3197C0.810865 30.4989 0.692828 30.7497 0.692828 31.0722C0.692828 31.2053 0.715922 31.3256 0.762111 31.4331C0.813432 31.5406 0.867318 31.6251 0.923771 31.6865C0.980224 31.7479 1.0726 31.8119 1.2009 31.8785C1.33434 31.945 1.43698 31.9911 1.50883 32.0167C1.58581 32.0423 1.70898 32.0832 1.87833 32.1395C2.05282 32.1958 2.16573 32.2342 2.21705 32.2547C2.2735 32.2701 2.37614 32.3085 2.52497 32.3699C2.67894 32.4313 2.78414 32.4851 2.8406 32.5311C2.90218 32.5721 2.98429 32.6361 3.08693 32.7231C3.19471 32.8101 3.26912 32.8971 3.31018 32.9842C3.35637 33.0712 3.39742 33.1787 3.43335 33.3067C3.4744 33.4346 3.49493 33.5754 3.49493 33.729C3.49493 34.2357 3.31788 34.6248 2.96377 34.8961C2.60965 35.1623 2.19396 35.2954 1.71667 35.2954C1.37283 35.2954 1.04694 35.2263 0.739017 35.0881C0.436225 34.9498 0.189886 34.7502 0 34.4891L0.477282 34.1359C0.605583 34.3407 0.777507 34.5071 0.993054 34.635C1.2086 34.7579 1.45237 34.8193 1.72437 34.8193C2.03743 34.8193 2.31713 34.7272 2.56346 34.5429C2.8098 34.3535 2.93297 34.095 2.93297 33.7674C2.93297 33.6189 2.90475 33.4884 2.84829 33.3758C2.79697 33.258 2.73795 33.1633 2.67124 33.0917C2.60452 33.02 2.49931 32.9509 2.35562 32.8843C2.21705 32.8127 2.10158 32.7615 2.0092 32.7308C1.92196 32.7001 1.78596 32.6565 1.6012 32.6002C1.38566 32.5337 1.20347 32.4671 1.05464 32.4006C0.910941 32.334 0.762111 32.2445 0.608149 32.1318C0.454187 32.0192 0.33615 31.8759 0.254037 31.7019C0.177056 31.5227 0.138566 31.3154 0.138566 31.0799C0.138566 30.7472 0.228377 30.4656 0.407999 30.2353C0.592753 29.9998 0.810866 29.8334 1.06234 29.7362C1.31894 29.6338 1.59094 29.5826 1.87833 29.5826C2.22218 29.5826 2.53011 29.6466 2.80211 29.7746C3.0741 29.8974 3.27939 30.0535 3.41795 30.2429Z" fill="#00FEFF"/>
<path d="M5.1843 31.5636V35.1572H4.66083V31.5636H5.1843ZM5.1766 29.9204C5.25359 29.9921 5.29208 30.0791 5.29208 30.1815C5.29208 30.2839 5.25359 30.3709 5.1766 30.4426C5.10476 30.5143 5.02008 30.5501 4.92257 30.5501C4.82506 30.5501 4.73781 30.5143 4.66083 30.4426C4.58898 30.3709 4.55306 30.2839 4.55306 30.1815C4.55306 30.0791 4.58898 29.9921 4.66083 29.9204C4.73781 29.8488 4.82506 29.813 4.92257 29.813C5.02008 29.813 5.10476 29.8488 5.1766 29.9204Z" fill="#00FEFF"/>
<path d="M7.09343 32.1779C7.2012 31.968 7.3603 31.7991 7.57071 31.6711C7.78626 31.538 8.02233 31.4715 8.27894 31.4715C8.82293 31.4715 9.19244 31.7249 9.38746 32.2317C9.63893 31.7249 10.0598 31.4715 10.6499 31.4715C11.0964 31.4715 11.4352 31.6046 11.6661 31.8708C11.9022 32.137 12.0202 32.4979 12.0202 32.9534V35.1572H11.4967V33.1684C11.4967 32.3289 11.1862 31.9092 10.5653 31.9092C10.2163 31.9092 9.95712 32.0397 9.78776 32.3008C9.62353 32.5567 9.54142 32.8715 9.54142 33.2452V35.1572H9.01795V33.0609C9.01795 32.6821 8.9538 32.3955 8.8255 32.201C8.70233 32.0064 8.47652 31.9092 8.14807 31.9092C7.87094 31.9092 7.62716 32.032 7.41675 32.2777C7.20633 32.5183 7.10113 32.8639 7.10113 33.3143V35.1572H6.57766V32.3545C6.57766 32.0474 6.56739 31.7838 6.54686 31.5636H7.04724C7.06777 31.8196 7.07803 32.0244 7.07803 32.1779H7.09343Z" fill="#00FEFF"/>
<path d="M13.8971 34.5506V37H13.3736V31.5636H13.8971V32.1856H13.9202C14.0639 31.9604 14.2589 31.7863 14.5052 31.6635C14.7516 31.5355 15.0082 31.4715 15.2751 31.4715C15.8293 31.4715 16.2784 31.6532 16.6222 32.0167C16.9661 32.375 17.138 32.8229 17.138 33.3604C17.138 33.8979 16.9661 34.3484 16.6222 34.7118C16.2784 35.0701 15.8293 35.2493 15.2751 35.2493C15.0133 35.2493 14.7593 35.1879 14.5129 35.065C14.2666 34.9422 14.069 34.7707 13.9202 34.5506H13.8971ZM16.2142 34.397C16.4606 34.1206 16.5837 33.775 16.5837 33.3604C16.5837 32.9458 16.4606 32.6002 16.2142 32.3238C15.973 32.0474 15.642 31.9092 15.2212 31.9092C14.8209 31.9092 14.4898 32.0474 14.2281 32.3238C13.9664 32.6002 13.8355 32.9458 13.8355 33.3604C13.8355 33.775 13.9664 34.1206 14.2281 34.397C14.4898 34.6683 14.8209 34.804 15.2212 34.804C15.642 34.804 15.973 34.6683 16.2142 34.397Z" fill="#00FEFF"/>
<path d="M18.799 29.3522V35.1572H18.2755V29.3522H18.799Z" fill="#00FEFF"/>
<path d="M20.4922 33.084H22.9479C22.9325 32.7359 22.8196 32.4543 22.6092 32.2393C22.4039 32.0192 22.1191 31.9092 21.7547 31.9092C21.416 31.9092 21.126 32.0269 20.8848 32.2624C20.6487 32.4927 20.5179 32.7666 20.4922 33.084ZM23.4791 33.2529C23.4791 33.3553 23.4765 33.4372 23.4714 33.4986H20.4845C20.4948 33.8621 20.6256 34.1718 20.8771 34.4277C21.1286 34.6785 21.4365 34.804 21.8009 34.804C22.0523 34.804 22.2807 34.7451 22.486 34.6274C22.6913 34.5045 22.8478 34.356 22.9556 34.182L23.3482 34.4891C22.9479 34.9959 22.4321 35.2493 21.8009 35.2493C21.2671 35.2493 20.8232 35.0701 20.4691 34.7118C20.115 34.3535 19.9379 33.903 19.9379 33.3604C19.9379 32.8229 20.1124 32.375 20.4614 32.0167C20.8104 31.6532 21.2415 31.4715 21.7547 31.4715C22.2987 31.4715 22.7221 31.6404 23.0249 31.9783C23.3277 32.311 23.4791 32.7359 23.4791 33.2529Z" fill="#00FEFF"/>
<path d="M27.053 34.5506V37H26.5295V31.5636H27.053V32.1856H27.0761C27.2198 31.9604 27.4148 31.7863 27.6612 31.6635C27.9075 31.5355 28.1641 31.4715 28.431 31.4715C28.9852 31.4715 29.4343 31.6532 29.7781 32.0167C30.122 32.375 30.2939 32.8229 30.2939 33.3604C30.2939 33.8979 30.122 34.3484 29.7781 34.7118C29.4343 35.0701 28.9852 35.2493 28.431 35.2493C28.1692 35.2493 27.9152 35.1879 27.6689 35.065C27.4225 34.9422 27.2249 34.7707 27.0761 34.5506H27.053ZM29.3701 34.397C29.6165 34.1206 29.7396 33.775 29.7396 33.3604C29.7396 32.9458 29.6165 32.6002 29.3701 32.3238C29.1289 32.0474 28.7979 31.9092 28.3771 31.9092C27.9768 31.9092 27.6458 32.0474 27.384 32.3238C27.1223 32.6002 26.9914 32.9458 26.9914 33.3604C26.9914 33.775 27.1223 34.1206 27.384 34.397C27.6458 34.6683 27.9768 34.804 28.3771 34.804C28.7979 34.804 29.1289 34.6683 29.3701 34.397Z" fill="#00FEFF"/>
<path d="M34.4491 32.009C34.8135 32.3673 34.9956 32.8178 34.9956 33.3604C34.9956 33.903 34.8135 34.3535 34.4491 34.7118C34.0898 35.0701 33.6305 35.2493 33.0711 35.2493C32.5169 35.2493 32.0575 35.0701 31.6932 34.7118C31.3339 34.3535 31.1543 33.903 31.1543 33.3604C31.1543 32.8178 31.3339 32.3673 31.6932 32.009C32.0575 31.6507 32.5169 31.4715 33.0711 31.4715C33.6305 31.4715 34.0898 31.6507 34.4491 32.009ZM34.0642 34.397C34.3156 34.1206 34.4414 33.775 34.4414 33.3604C34.4414 32.9458 34.3156 32.6002 34.0642 32.3238C33.8127 32.0474 33.4817 31.9092 33.0711 31.9092C32.6657 31.9092 32.3372 32.0474 32.0858 32.3238C31.8343 32.6002 31.7086 32.9458 31.7086 33.3604C31.7086 33.7699 31.8343 34.1129 32.0858 34.3893C32.3372 34.6657 32.6657 34.804 33.0711 34.804C33.4817 34.804 33.8127 34.6683 34.0642 34.397Z" fill="#00FEFF"/>
<path d="M35.6294 31.5636H36.1914L37.0613 34.4815H37.0766L38.0466 31.5636H38.5547L39.54 34.4815H39.5554L40.4176 31.5636H40.9719L39.8326 35.1572H39.2629L38.3006 32.247H38.2852L37.3384 35.1572H36.7687L35.6294 31.5636Z" fill="#00FEFF"/>
<path d="M42.1581 33.084H44.6138C44.5984 32.7359 44.4855 32.4543 44.2751 32.2393C44.0698 32.0192 43.785 31.9092 43.4206 31.9092C43.0819 31.9092 42.7919 32.0269 42.5507 32.2624C42.3146 32.4927 42.1838 32.7666 42.1581 33.084ZM45.145 33.2529C45.145 33.3553 45.1424 33.4372 45.1373 33.4986H42.1504C42.1607 33.8621 42.2915 34.1718 42.543 34.4277C42.7945 34.6785 43.1024 34.804 43.4668 34.804C43.7183 34.804 43.9466 34.7451 44.1519 34.6274C44.3572 34.5045 44.5137 34.356 44.6215 34.182L45.0141 34.4891C44.6138 34.9959 44.098 35.2493 43.4668 35.2493C42.933 35.2493 42.4891 35.0701 42.135 34.7118C41.7809 34.3535 41.6038 33.903 41.6038 33.3604C41.6038 32.8229 41.7783 32.375 42.1273 32.0167C42.4763 31.6532 42.9074 31.4715 43.4206 31.4715C43.9646 31.4715 44.388 31.6404 44.6908 31.9783C44.9936 32.311 45.145 32.7359 45.145 33.2529Z" fill="#00FEFF"/>
<path d="M46.2709 32.3545C46.2709 32.0474 46.2607 31.7838 46.2401 31.5636H46.7405C46.761 31.8196 46.7713 32.0244 46.7713 32.1779H46.7867C46.8893 31.968 47.0433 31.7991 47.2486 31.6711C47.459 31.538 47.6899 31.4715 47.9414 31.4715C48.08 31.4715 48.1955 31.4843 48.2878 31.5099L48.2186 32.0013C48.1364 31.9706 48.0133 31.9552 47.849 31.9552C47.5463 31.9552 47.2948 32.0704 47.0946 32.3008C46.8945 32.526 46.7944 32.8639 46.7944 33.3143V35.1572H46.2709V32.3545Z" fill="#00FEFF"/>
<path d="M54.0025 32.009C54.3669 32.3673 54.5491 32.8178 54.5491 33.3604C54.5491 33.903 54.3669 34.3535 54.0025 34.7118C53.6433 35.0701 53.184 35.2493 52.6246 35.2493C52.0703 35.2493 51.611 35.0701 51.2466 34.7118C50.8874 34.3535 50.7077 33.903 50.7077 33.3604C50.7077 32.8178 50.8874 32.3673 51.2466 32.009C51.611 31.6507 52.0703 31.4715 52.6246 31.4715C53.184 31.4715 53.6433 31.6507 54.0025 32.009ZM53.6176 34.397C53.8691 34.1206 53.9948 33.775 53.9948 33.3604C53.9948 32.9458 53.8691 32.6002 53.6176 32.3238C53.3661 32.0474 53.0351 31.9092 52.6246 31.9092C52.2191 31.9092 51.8907 32.0474 51.6392 32.3238C51.3877 32.6002 51.262 32.9458 51.262 33.3604C51.262 33.7699 51.3877 34.1129 51.6392 34.3893C51.8907 34.6657 52.2191 34.804 52.6246 34.804C53.0351 34.804 53.3661 34.6683 53.6176 34.397Z" fill="#00FEFF"/>
<path d="M57.1998 31.5636V32.0013H56.353V35.1572H55.8295V32.0013H55.0751V31.5636H55.8295V30.5808C55.8295 30.1662 55.9321 29.8437 56.1374 29.6133C56.3427 29.3778 56.6481 29.2601 57.0535 29.2601C57.2177 29.2601 57.3614 29.278 57.4846 29.3139L57.3922 29.7746C57.269 29.7387 57.1484 29.7208 57.0304 29.7208C56.7687 29.7208 56.589 29.8002 56.4915 29.9588C56.3992 30.1175 56.353 30.3453 56.353 30.6422V31.5636H57.1998Z" fill="#00FEFF"/>
<path d="M60.5972 29.3522V33.1838H60.6203L62.2831 31.5636H63.0375L61.2207 33.2068L63.2222 35.1572H62.4524L60.6203 33.2683H60.5972V35.1572H60.0737V29.3522H60.5972Z" fill="#00FEFF"/>
<path d="M63.9518 31.5636H64.4521C64.4727 31.8196 64.4829 32.0244 64.4829 32.1779H64.4983C64.5958 31.9732 64.7601 31.8042 64.991 31.6711C65.2271 31.538 65.4734 31.4715 65.73 31.4715C66.1765 31.4715 66.5152 31.6046 66.7462 31.8708C66.9822 32.137 67.1003 32.4979 67.1003 32.9534V35.1572H66.5768V33.1684C66.5768 32.764 66.5024 32.4543 66.3536 32.2393C66.2099 32.0192 65.9584 31.9092 65.5992 31.9092C65.2964 31.9092 65.0372 32.032 64.8217 32.2777C64.6112 32.5183 64.506 32.8639 64.506 33.3143V35.1572H63.9826V32.3545C63.9826 32.0474 63.9723 31.7838 63.9518 31.5636Z" fill="#00FEFF"/>
<path d="M71.4886 32.009C71.853 32.3673 72.0352 32.8178 72.0352 33.3604C72.0352 33.903 71.853 34.3535 71.4886 34.7118C71.1294 35.0701 70.67 35.2493 70.1107 35.2493C69.5564 35.2493 69.0971 35.0701 68.7327 34.7118C68.3735 34.3535 68.1938 33.903 68.1938 33.3604C68.1938 32.8178 68.3735 32.3673 68.7327 32.009C69.0971 31.6507 69.5564 31.4715 70.1107 31.4715C70.67 31.4715 71.1294 31.6507 71.4886 32.009ZM71.1037 34.397C71.3552 34.1206 71.4809 33.775 71.4809 33.3604C71.4809 32.9458 71.3552 32.6002 71.1037 32.3238C70.8522 32.0474 70.5212 31.9092 70.1107 31.9092C69.7052 31.9092 69.3768 32.0474 69.1253 32.3238C68.8738 32.6002 68.7481 32.9458 68.7481 33.3604C68.7481 33.7699 68.8738 34.1129 69.1253 34.3893C69.3768 34.6657 69.7052 34.804 70.1107 34.804C70.5212 34.804 70.8522 34.6683 71.1037 34.397Z" fill="#00FEFF"/>
<path d="M72.6689 31.5636H73.2309L74.1008 34.4815H74.1162L75.0861 31.5636H75.5942L76.5796 34.4815H76.595L77.4572 31.5636H78.0114L76.8721 35.1572H76.3024L75.3402 32.247H75.3248L74.3779 35.1572H73.8083L72.6689 31.5636Z" fill="#00FEFF"/>
<path d="M79.444 29.3522V35.1572H78.9205V29.3522H79.444Z" fill="#00FEFF"/>
<path d="M81.1372 33.084H83.5929C83.5775 32.7359 83.4646 32.4543 83.2542 32.2393C83.0489 32.0192 82.7641 31.9092 82.3997 31.9092C82.061 31.9092 81.771 32.0269 81.5298 32.2624C81.2937 32.4927 81.1629 32.7666 81.1372 33.084ZM84.1241 33.2529C84.1241 33.3553 84.1215 33.4372 84.1164 33.4986H81.1295C81.1398 33.8621 81.2706 34.1718 81.5221 34.4277C81.7736 34.6785 82.0815 34.804 82.4459 34.804C82.6974 34.804 82.9257 34.7451 83.131 34.6274C83.3363 34.5045 83.4928 34.356 83.6006 34.182L83.9932 34.4891C83.5929 34.9959 83.0771 35.2493 82.4459 35.2493C81.9122 35.2493 81.4682 35.0701 81.1141 34.7118C80.76 34.3535 80.5829 33.903 80.5829 33.3604C80.5829 32.8229 80.7574 32.375 81.1064 32.0167C81.4554 31.6532 81.8865 31.4715 82.3997 31.4715C82.9437 31.4715 83.3671 31.6404 83.6699 31.9783C83.9727 32.311 84.1241 32.7359 84.1241 33.2529Z" fill="#00FEFF"/>
<path d="M88.2138 34.5506C88.065 34.7707 87.8674 34.9422 87.621 35.065C87.3747 35.1879 87.1181 35.2493 86.8512 35.2493C86.297 35.2493 85.8479 35.0701 85.5041 34.7118C85.1602 34.3484 84.9883 33.8979 84.9883 33.3604C84.9883 32.8229 85.1602 32.375 85.5041 32.0167C85.8479 31.6532 86.297 31.4715 86.8512 31.4715C87.1181 31.4715 87.3747 31.5355 87.621 31.6635C87.8674 31.7863 88.065 31.9604 88.2138 32.1856H88.2292V29.3522H88.7527V35.1572H88.2292V34.5506H88.2138ZM85.9044 32.3238C85.6632 32.6002 85.5426 32.9458 85.5426 33.3604C85.5426 33.775 85.6632 34.1206 85.9044 34.397C86.1507 34.6683 86.4843 34.804 86.9051 34.804C87.3054 34.804 87.6364 34.6683 87.8982 34.397C88.1599 34.1206 88.2908 33.775 88.2908 33.3604C88.2908 32.9458 88.1599 32.6002 87.8982 32.3238C87.6364 32.0474 87.3054 31.9092 86.9051 31.9092C86.4843 31.9092 86.1507 32.0474 85.9044 32.3238Z" fill="#00FEFF"/>
<path d="M89.9668 36.2782L90.344 35.8789C90.4928 36.0683 90.693 36.2245 90.9445 36.3473C91.1959 36.4753 91.4551 36.5393 91.722 36.5393C92.2095 36.5393 92.5662 36.4088 92.792 36.1477C93.0178 35.8866 93.1307 35.5462 93.1307 35.1265V34.4507H93.1153C92.9819 34.6657 92.7869 34.8372 92.5303 34.9652C92.2788 35.0932 92.0196 35.1572 91.7528 35.1572C91.1985 35.1572 90.7494 34.9857 90.4056 34.6427C90.0617 34.2997 89.8898 33.8621 89.8898 33.3297C89.8898 32.8076 90.0617 32.3673 90.4056 32.009C90.7546 31.6507 91.2036 31.4715 91.7528 31.4715C92.0248 31.4715 92.2839 31.5355 92.5303 31.6635C92.7817 31.7863 92.9767 31.9604 93.1153 32.1856H93.1307V31.5636H93.6542V35.1265C93.6542 35.3466 93.6234 35.5564 93.5618 35.7561C93.5054 35.9557 93.4104 36.1528 93.277 36.3473C93.1435 36.547 92.9408 36.7057 92.6688 36.8234C92.402 36.9411 92.0786 37 91.6989 37C91.3704 37 91.0522 36.936 90.7443 36.808C90.4415 36.6801 90.1823 36.5035 89.9668 36.2782ZM90.8059 32.3161C90.5647 32.5874 90.4441 32.9202 90.4441 33.3143C90.4441 33.7085 90.5647 34.0412 90.8059 34.3125C91.0522 34.5787 91.3858 34.7118 91.8066 34.7118C92.2121 34.7118 92.5431 34.5838 92.7997 34.3279C93.0614 34.0668 93.1923 33.729 93.1923 33.3143C93.1923 32.9304 93.0589 32.6002 92.792 32.3238C92.5303 32.0474 92.2018 31.9092 91.8066 31.9092C91.3858 31.9092 91.0522 32.0448 90.8059 32.3161Z" fill="#00FEFF"/>
<path d="M95.308 33.084H97.7637C97.7483 32.7359 97.6354 32.4543 97.425 32.2393C97.2197 32.0192 96.9349 31.9092 96.5705 31.9092C96.2318 31.9092 95.9418 32.0269 95.7006 32.2624C95.4645 32.4927 95.3337 32.7666 95.308 33.084ZM98.2949 33.2529C98.2949 33.3553 98.2923 33.4372 98.2872 33.4986H95.3003C95.3106 33.8621 95.4414 34.1718 95.6929 34.4277C95.9444 34.6785 96.2523 34.804 96.6167 34.804C96.8682 34.804 97.0965 34.7451 97.3018 34.6274C97.5071 34.5045 97.6636 34.356 97.7714 34.182L98.164 34.4891C97.7637 34.9959 97.2479 35.2493 96.6167 35.2493C96.083 35.2493 95.639 35.0701 95.2849 34.7118C94.9308 34.3535 94.7537 33.903 94.7537 33.3604C94.7537 32.8229 94.9282 32.375 95.2772 32.0167C95.6262 31.6532 96.0573 31.4715 96.5705 31.4715C97.1145 31.4715 97.5379 31.6404 97.8407 31.9783C98.1435 32.311 98.2949 32.7359 98.2949 33.2529Z" fill="#00FEFF"/>
</svg>
